<svg width="24" height="24" viewBox="0 0 24 24" fill="none" xmlns="http://www.w3.org/2000/svg">
<g clip-path="url(#clip0_370_10253)">
<path fill-rule="evenodd" clip-rule="evenodd" d="M12 0C16.4861 0 18.7292 -0.000122952 20.4 0.964452C21.4945 1.59638 22.4036 2.50546 23.0356 3.6C24.0001 5.27076 24 7.51392 24 12C24 16.4861 24.0001 18.7292 23.0356 20.4C22.4036 21.4945 21.4945 22.4036 20.4 23.0356C18.7292 24.0001 16.4861 24 12 24C7.51392 24 5.27076 24.0001 3.6 23.0356C2.50546 22.4036 1.59638 21.4945 0.964452 20.4C-0.000122952 18.7292 0 16.4861 0 12C0 7.51392 -0.000122952 5.27076 0.964452 3.6C1.59638 2.50546 2.50546 1.59638 3.6 0.964452C5.27076 -0.000122952 7.51392 0 12 0ZM13.2 2.4C7.89804 2.4 3.6 6.69804 3.6 12C3.6 17.302 7.89804 21.6 13.2 21.6C18.502 21.6 22.8 17.302 22.8 12C22.8 6.69804 18.502 2.4 13.2 2.4Z" fill="white"/>
<path d="M21.6016 12C21.6016 15.3137 18.9152 18 15.6016 18C12.2879 18 9.60156 15.3137 9.60156 12C9.60156 8.68632 12.2879 6 15.6016 6C18.9152 6 21.6016 8.68632 21.6016 12Z" fill="white"/>
</g>
<defs>
<clipPath id="clip0_370_10253">
<rect width="24" height="24" fill="white"/>
</clipPath>
</defs>
</svg>
