<svg width="24" height="24" viewBox="0 0 24 24" fill="none" xmlns="http://www.w3.org/2000/svg">
<g clip-path="url(#clip0_370_10261)">
<path d="M14.4 0H9.6V7.23792C9.57978 8.54604 8.5131 9.6 7.2003 9.6H0V14.4H5.21177C6.4848 14.4 7.70574 13.8943 8.60586 12.9941L12.9941 8.60586C13.8943 7.70574 14.4 6.4848 14.4 5.21177V0Z" fill="white"/>
<path d="M9.60156 24H14.4016V16.7621C14.4218 15.4539 15.4885 14.4 16.8013 14.4H24.0016V9.59998H18.7898C17.5168 9.59998 16.2958 10.1057 15.3957 11.0058L11.0074 15.3941C10.1073 16.2942 9.60156 17.5152 9.60156 18.7882V24Z" fill="white"/>
</g>
<defs>
<clipPath id="clip0_370_10261">
<rect width="24" height="24" fill="white"/>
</clipPath>
</defs>
</svg>
