<svg width="138" height="48" viewBox="0 0 138 48" fill="none" xmlns="http://www.w3.org/2000/svg">
<rect x="0.411645" y="0.411645" width="137.177" height="47.1767" rx="23.5884" fill="white"/>
<rect x="0.411645" y="0.411645" width="137.177" height="47.1767" rx="23.5884" stroke="#E6E6E6" stroke-width="0.82329"/>
<rect x="6.63235" y="7.34914" width="33.1767" height="33.1767" rx="16.5884" fill="white"/>
<rect x="6.63235" y="7.34914" width="33.1767" height="33.1767" rx="16.5884" stroke="#E6E6E6" stroke-width="0.82329"/>
<g clip-path="url(#clip0_174_1892)">
<path d="M22.2546 16.0884L30.9327 26.3029V31.7865H26.8829V28.2741L20.5799 20.8551H19.2705V31.7865H15.2207V16.0884H22.2546ZM26.8829 21.5361V16.0884H30.9327V21.5361H26.8829Z" fill="#212326"/>
</g>
<path d="M49.3911 28.9375V17.2969H56.6958V18.8047H51.1489V22.3125H56.3052V23.8125H51.1489V27.4297H56.7505V28.9375H49.3911ZM64.1021 32.2031V27.5781H64.0005C63.9015 27.7604 63.7557 27.9714 63.563 28.2109C63.3703 28.4505 63.1073 28.6615 62.7739 28.8438C62.4458 29.0208 62.0161 29.1094 61.4849 29.1094C60.7765 29.1094 60.1463 28.9297 59.5942 28.5703C59.0422 28.2057 58.6099 27.6875 58.2974 27.0156C57.9849 26.3385 57.8286 25.5312 57.8286 24.5938C57.8286 23.6458 57.9875 22.8359 58.3052 22.1641C58.6229 21.4922 59.0578 20.9792 59.6099 20.625C60.1619 20.2708 60.7869 20.0938 61.4849 20.0938C62.0317 20.0938 62.4692 20.1849 62.7974 20.3672C63.1307 20.5443 63.3885 20.7526 63.5708 20.9922C63.7583 21.2318 63.9015 21.4427 64.0005 21.625H64.1411V20.2031H65.7896V32.2031H64.1021ZM61.8521 27.6641C62.3416 27.6641 62.7557 27.5339 63.0942 27.2734C63.4328 27.013 63.688 26.651 63.8599 26.1875C64.0369 25.724 64.1255 25.1875 64.1255 24.5781C64.1255 23.9688 64.0396 23.4375 63.8677 22.9844C63.6958 22.526 63.4406 22.1719 63.1021 21.9219C62.7635 21.6667 62.3468 21.5391 61.8521 21.5391C61.3416 21.5391 60.9172 21.6719 60.5786 21.9375C60.2401 22.2031 59.9849 22.5651 59.813 23.0234C59.6411 23.4818 59.5552 24 59.5552 24.5781C59.5552 25.1615 59.6411 25.6875 59.813 26.1562C59.9849 26.6198 60.2401 26.987 60.5786 27.2578C60.9224 27.5286 61.3468 27.6641 61.8521 27.6641ZM72.9536 25.3281V20.2031H74.6411V28.9375H72.9849V27.4219H72.8911C72.6828 27.8854 72.3599 28.2734 71.9224 28.5859C71.4849 28.8984 70.938 29.0521 70.2817 29.0469C69.7192 29.0469 69.2218 28.9245 68.7896 28.6797C68.3625 28.4349 68.0265 28.0677 67.7817 27.5781C67.5422 27.0885 67.4224 26.4818 67.4224 25.7578V20.2031H69.1099V25.5625C69.1099 26.151 69.2765 26.6224 69.6099 26.9766C69.9432 27.3307 70.3729 27.5052 70.8989 27.5C71.2166 27.5 71.5317 27.4219 71.8442 27.2656C72.1619 27.1094 72.425 26.8698 72.6333 26.5469C72.8468 26.224 72.9536 25.8177 72.9536 25.3281ZM76.2661 28.9375V20.2031H77.9536V28.9375H76.2661ZM77.1177 18.8594C76.8208 18.8594 76.5682 18.7604 76.3599 18.5625C76.1515 18.3646 76.0474 18.1276 76.0474 17.8516C76.0474 17.5703 76.1515 17.3307 76.3599 17.1328C76.5682 16.9349 76.8208 16.8359 77.1177 16.8359C77.4093 16.8359 77.6593 16.9349 77.8677 17.1328C78.0812 17.3307 78.188 17.5703 78.188 17.8516C78.188 18.1276 78.0812 18.3646 77.8677 18.5625C77.6593 18.7604 77.4093 18.8594 77.1177 18.8594ZM83.6411 20.2031V21.5703H78.8755V20.2031H83.6411ZM80.1489 18.125H81.8442V26.375C81.8442 26.776 81.9276 27.0703 82.0942 27.2578C82.2609 27.4401 82.5291 27.5312 82.8989 27.5312C82.9875 27.5312 83.0812 27.526 83.1802 27.5156C83.2843 27.5052 83.3885 27.4896 83.4927 27.4688L83.813 28.875C83.6411 28.9323 83.4536 28.9766 83.2505 29.0078C83.0474 29.0391 82.8442 29.0547 82.6411 29.0547C81.8859 29.0547 81.2817 28.8438 80.8286 28.4219C80.3755 27.9948 80.1489 27.4271 80.1489 26.7188V18.125ZM85.9224 32.2031C85.6672 32.2083 85.4354 32.1901 85.2271 32.1484C85.0239 32.112 84.8677 32.0677 84.7583 32.0156L85.1724 30.6328L85.2896 30.6641C85.7218 30.7734 86.0864 30.7656 86.3833 30.6406C86.6854 30.5208 86.938 30.1849 87.1411 29.6328L87.3521 29.0547L84.1646 20.2031H85.9849L88.188 26.9844H88.2817L90.4927 20.2031H92.313L88.7192 30.0938C88.5526 30.5521 88.3416 30.9375 88.0864 31.25C87.8312 31.5677 87.5239 31.8047 87.1646 31.9609C86.8104 32.1224 86.3963 32.2031 85.9224 32.2031Z" fill="black"/>
<defs>
<clipPath id="clip0_174_1892">
<rect width="16" height="16" fill="white" transform="translate(15.2207 15.9375)"/>
</clipPath>
</defs>
</svg>
