<svg width="138" height="48" viewBox="0 0 138 48" fill="none" xmlns="http://www.w3.org/2000/svg">
<rect x="0.411645" y="0.411645" width="137.177" height="47.1767" rx="23.5884" fill="white"/>
<rect x="0.411645" y="0.411645" width="137.177" height="47.1767" rx="23.5884" stroke="#E6E6E6" stroke-width="0.82329"/>
<rect x="6.63235" y="7.34914" width="33.1767" height="33.1767" rx="16.5884" fill="white"/>
<rect x="6.63235" y="7.34914" width="33.1767" height="33.1767" rx="16.5884" stroke="#E6E6E6" stroke-width="0.82329"/>
<g clip-path="url(#clip0_174_1846)">
<path d="M21.8842 31.9376H21.3735C20.047 31.9376 19.2488 31.9374 18.6392 31.824L22.1676 27.1514L21.8842 31.9376Z" fill="#FF1616"/>
<path d="M27.7202 31.8381C27.121 31.9371 26.3359 31.9375 25.0682 31.9375H24.4645L24.1797 27.1499L27.7202 31.8381Z" fill="#FF1616"/>
<path d="M31.0895 28.6057C31.0637 28.7283 31.0334 28.8436 30.9964 28.9544C30.7544 29.6801 30.3294 30.3183 29.7756 30.8167L25.7969 26.355L31.0895 28.6057Z" fill="#FF1616"/>
<path d="M16.6151 30.7693C16.0865 30.2781 15.6798 29.6576 15.4453 28.9547C15.4047 28.8329 15.371 28.706 15.3438 28.5698L20.5504 26.356L16.6151 30.7693Z" fill="#FF1616"/>
<path d="M31.2206 25.7851C31.2206 26.2349 31.2193 26.6239 31.2149 26.9654L26.4897 25.1401H31.2206V25.7851Z" fill="#FF1616"/>
<path d="M19.8592 25.1401L15.225 26.9299C15.221 26.597 15.2207 26.2193 15.2207 25.7851V25.1401H19.8592Z" fill="#FF1616"/>
<path d="M25.068 15.9375C26.733 15.9375 27.5655 15.9377 28.2377 16.1619C29.5399 16.5964 30.5619 17.6183 30.9963 18.9205C31.2205 19.5927 31.2207 20.4252 31.2207 22.0902V23.9439H26.2243L29.8279 22.4119L28.7591 21.7024L25.2626 23.0525L26.9039 20.8807L25.7235 20.5575L23.9111 22.5888L23.7761 20.3011H22.5737L22.4366 22.5888L20.6255 20.5575L19.4459 20.8807L21.0851 23.0519L17.5907 21.7024L16.5218 22.4119L20.1248 23.9439H15.2207V22.0902C15.2207 20.4252 15.2209 19.5927 15.4451 18.9205C15.8796 17.6183 16.9015 16.5964 18.2037 16.1619C18.8759 15.9377 19.7084 15.9375 21.3734 15.9375H25.068Z" fill="#FF1616"/>
</g>
<path d="M58.8052 17.2969V28.9375H57.1646L51.2661 20.4062H51.1489V28.9375H49.3911V17.2969H51.0161L56.938 25.8438H57.0474V17.2969H58.8052ZM64.3208 29.1172C63.4666 29.1172 62.7271 28.9323 62.1021 28.5625C61.4771 28.1927 60.9953 27.6719 60.6567 27C60.3234 26.3229 60.1567 25.5339 60.1567 24.6328C60.1567 23.737 60.3208 22.9479 60.6489 22.2656C60.9823 21.5833 61.4484 21.0521 62.0474 20.6719C62.6515 20.2865 63.3599 20.0938 64.1724 20.0938C64.6672 20.0938 65.1463 20.1745 65.6099 20.3359C66.0734 20.4974 66.4901 20.7526 66.8599 21.1016C67.2297 21.4505 67.5213 21.9036 67.7349 22.4609C67.9536 23.0182 68.063 23.6901 68.063 24.4766V25.0859H61.1177V23.8125H67.188L66.3989 24.2344C66.3989 23.6979 66.3156 23.224 66.1489 22.8125C65.9823 22.401 65.7323 22.0807 65.3989 21.8516C65.0708 21.6172 64.6619 21.5 64.1724 21.5C63.6828 21.5 63.2635 21.6172 62.9146 21.8516C62.5708 22.0859 62.3078 22.3958 62.1255 22.7812C61.9432 23.1667 61.8521 23.5885 61.8521 24.0469V24.9141C61.8521 25.513 61.9562 26.0208 62.1646 26.4375C62.3729 26.8542 62.6619 27.1719 63.0317 27.3906C63.4067 27.6094 63.8416 27.7188 64.3364 27.7188C64.6593 27.7188 64.951 27.6719 65.2114 27.5781C65.4771 27.4844 65.7062 27.3438 65.8989 27.1562C66.0916 26.9688 66.2375 26.737 66.3364 26.4609L67.9458 26.7656C67.8156 27.2344 67.5864 27.6458 67.2583 28C66.9302 28.3542 66.5161 28.6302 66.0161 28.8281C65.5213 29.0208 64.9562 29.1172 64.3208 29.1172ZM70.2427 20.2031L72.1567 23.6094L74.1021 20.2031H75.9692L73.2505 24.5781L75.9849 28.9375H74.1333L72.1567 25.6719L70.2114 28.9375H68.3442L71.0552 24.5781L68.3755 20.2031H70.2427ZM81.1255 20.2031V21.5703H76.3599V20.2031H81.1255ZM77.6333 18.125H79.3286V26.375C79.3286 26.776 79.4119 27.0703 79.5786 27.2578C79.7453 27.4401 80.0135 27.5312 80.3833 27.5312C80.4718 27.5312 80.5656 27.526 80.6646 27.5156C80.7687 27.5052 80.8729 27.4896 80.9771 27.4688L81.2974 28.875C81.1255 28.9323 80.938 28.9766 80.7349 29.0078C80.5317 29.0391 80.3286 29.0547 80.1255 29.0547C79.3703 29.0547 78.7661 28.8438 78.313 28.4219C77.8599 27.9948 77.6333 27.4271 77.6333 26.7188V18.125ZM84.6567 28.9375L81.438 17.2969H83.2817L85.5474 26.3125H85.6567L88.0161 17.2969H89.8442L92.1958 26.3203H92.313L94.5708 17.2969H96.4302L93.188 28.9375H91.4224L88.9771 20.2266H88.8833L86.438 28.9375H84.6567ZM98.938 29.125C98.3859 29.125 97.8859 29.0234 97.438 28.8203C96.9901 28.612 96.6359 28.3099 96.3755 27.9141C96.1151 27.5182 95.9849 27.0365 95.9849 26.4688C95.9849 25.974 96.0786 25.5703 96.2661 25.2578C96.4588 24.9401 96.7166 24.6875 97.0396 24.5C97.3625 24.3125 97.7218 24.1719 98.1177 24.0781C98.5135 23.9844 98.9198 23.9115 99.3364 23.8594C99.8625 23.8021 100.287 23.7526 100.61 23.7109C100.933 23.6693 101.167 23.6042 101.313 23.5156C101.464 23.4219 101.54 23.2734 101.54 23.0703V23.0312C101.54 22.5365 101.399 22.1536 101.118 21.8828C100.842 21.612 100.43 21.4766 99.8833 21.4766C99.3156 21.4766 98.8651 21.6016 98.5317 21.8516C98.2036 22.0964 97.9771 22.375 97.8521 22.6875L96.2505 22.3203C96.4432 21.7891 96.7218 21.362 97.0864 21.0391C97.4562 20.7109 97.8781 20.4714 98.3521 20.3203C98.8312 20.1693 99.3312 20.0938 99.8521 20.0938C100.201 20.0938 100.571 20.1354 100.961 20.2188C101.352 20.2969 101.719 20.4453 102.063 20.6641C102.412 20.8776 102.696 21.1849 102.915 21.5859C103.133 21.987 103.243 22.5052 103.243 23.1406V28.9375H101.579V27.7422H101.516C101.412 27.9557 101.248 28.1693 101.024 28.3828C100.805 28.5964 100.524 28.7734 100.18 28.9141C99.8364 29.0547 99.4224 29.125 98.938 29.125ZM99.3052 27.7656C99.7791 27.7656 100.183 27.6745 100.516 27.4922C100.849 27.3047 101.105 27.0599 101.282 26.7578C101.459 26.4557 101.547 26.1354 101.547 25.7969V24.6641C101.485 24.7214 101.368 24.776 101.196 24.8281C101.024 24.8802 100.829 24.9245 100.61 24.9609C100.391 24.9974 100.178 25.0312 99.9692 25.0625C99.7609 25.0885 99.5864 25.1094 99.4458 25.125C99.1177 25.1719 98.8182 25.2448 98.5474 25.3438C98.2765 25.4375 98.0578 25.5781 97.8911 25.7656C97.7297 25.9479 97.6489 26.1901 97.6489 26.4922C97.6489 26.9141 97.8052 27.2318 98.1177 27.4453C98.4302 27.6589 98.826 27.7656 99.3052 27.7656ZM112.016 20.2031L108.86 28.9375H107.032L103.868 20.2031H105.688L107.907 26.9375H108L110.204 20.2031H112.016ZM116.399 29.1172C115.545 29.1172 114.805 28.9323 114.18 28.5625C113.555 28.1927 113.073 27.6719 112.735 27C112.402 26.3229 112.235 25.5339 112.235 24.6328C112.235 23.737 112.399 22.9479 112.727 22.2656C113.06 21.5833 113.527 21.0521 114.125 20.6719C114.73 20.2865 115.438 20.0938 116.25 20.0938C116.745 20.0938 117.224 20.1745 117.688 20.3359C118.152 20.4974 118.568 20.7526 118.938 21.1016C119.308 21.4505 119.599 21.9036 119.813 22.4609C120.032 23.0182 120.141 23.6901 120.141 24.4766V25.0859H113.196V23.8125H119.266L118.477 24.2344C118.477 23.6979 118.394 23.224 118.227 22.8125C118.06 22.401 117.81 22.0807 117.477 21.8516C117.149 21.6172 116.74 21.5 116.25 21.5C115.761 21.5 115.342 21.6172 114.993 21.8516C114.649 22.0859 114.386 22.3958 114.204 22.7812C114.021 23.1667 113.93 23.5885 113.93 24.0469V24.9141C113.93 25.513 114.034 26.0208 114.243 26.4375C114.451 26.8542 114.74 27.1719 115.11 27.3906C115.485 27.6094 115.92 27.7188 116.415 27.7188C116.737 27.7188 117.029 27.6719 117.29 27.5781C117.555 27.4844 117.784 27.3438 117.977 27.1562C118.17 26.9688 118.316 26.737 118.415 26.4609L120.024 26.7656C119.894 27.2344 119.665 27.6458 119.336 28C119.008 28.3542 118.594 28.6302 118.094 28.8281C117.599 29.0208 117.034 29.1172 116.399 29.1172Z" fill="black"/>
<defs>
<clipPath id="clip0_174_1846">
<rect width="16" height="16" fill="white" transform="translate(15.2207 15.9375)"/>
</clipPath>
</defs>
</svg>
